<svg width="25" height="25" viewBox="0 0 25 15" fill="none" xmlns="http://www.w3.org/2000/svg">
<rect x="8" y="10.8879" width="11.1552" height="1.48736" rx="0.74368" transform="rotate(-45 8 10.8879)" fill="#D9D9D9"/>
<rect x="9.11552" y="3.07928" width="11.1552" height="1.48736" rx="0.74368" transform="rotate(45 9.11552 3.07928)" fill="#D9D9D9"/>
<path d="M0 3.25C0 3.25 0 0.125 3.125 0.125H21.875C21.875 0.125 25 0.125 25 3.25V12.625C25 12.625 25 15.75 21.875 15.75H15.625C15.625 16.7917 15.7552 17.5729 16.0156 18.0938H17.1875C17.3947 18.0938 17.5934 18.1761 17.7399 18.3226C17.8864 18.4691 17.9688 18.6678 17.9688 18.875C17.9688 19.0822 17.8864 19.2809 17.7399 19.4274C17.5934 19.5739 17.3947 19.6562 17.1875 19.6562H7.8125C7.6053 19.6562 7.40659 19.5739 7.26007 19.4274C7.11356 19.2809 7.03125 19.0822 7.03125 18.875C7.03125 18.6678 7.11356 18.4691 7.26007 18.3226C7.40659 18.1761 7.6053 18.0938 7.8125 18.0938H8.98438C9.24479 17.5729 9.375 16.7917 9.375 15.75H3.125C3.125 15.75 0 15.75 0 12.625V3.25ZM2.18438 1.91406C2.01284 2.03367 1.87594 2.19645 1.7875 2.38594C1.65587 2.6617 1.57944 2.96053 1.5625 3.26563V12.625C1.5625 13.1328 1.68437 13.4094 1.78906 13.5656C1.89844 13.7281 2.05573 13.8604 2.26094 13.9625C2.52475 14.0888 2.80987 14.1646 3.10156 14.1859L3.14062 14.1875H21.875C22.3828 14.1875 22.6594 14.0656 22.8156 13.9609C22.9872 13.8413 23.1241 13.6786 23.2125 13.4891C23.3388 13.2253 23.4146 12.9401 23.4359 12.6484L23.4375 12.6094V3.25C23.4375 2.74219 23.3156 2.46563 23.2109 2.30938C23.0913 2.13784 22.9286 2.00094 22.7391 1.9125C22.4633 1.78087 22.1645 1.70444 21.8594 1.6875H3.125C2.61719 1.6875 2.34063 1.80937 2.18438 1.91406Z" fill="#D9D9D9"/>
</svg>
