<svg width="25" height="17" viewBox="0 0 25 17" fill="none" xmlns="http://www.w3.org/2000/svg">
<path fill-rule="evenodd" clip-rule="evenodd" d="M0 3.8125C0 2.9837 0.32924 2.18884 0.915291 1.60279C1.50134 1.01674 2.2962 0.6875 3.125 0.6875H14.8438C15.6017 0.687411 16.3339 0.962801 16.9039 1.46239C17.4739 1.96197 17.8429 2.6517 17.9422 3.40312L22.8016 1.24375C23.0394 1.13777 23.3 1.09291 23.5596 1.11326C23.8192 1.13361 24.0696 1.21851 24.288 1.36025C24.5065 1.502 24.686 1.69609 24.8104 1.92488C24.9347 2.15367 24.9999 2.40992 25 2.67031V14.3297C24.9998 14.5899 24.9346 14.8459 24.8103 15.0745C24.6861 15.3031 24.5067 15.4971 24.2885 15.6388C24.0702 15.7805 23.8201 15.8654 23.5607 15.886C23.3013 15.9065 23.0409 15.8619 22.8031 15.7563L17.9422 13.5969C17.8429 14.3483 17.4739 15.038 16.9039 15.5376C16.3339 16.0372 15.6017 16.3126 14.8438 16.3125H3.125C2.2962 16.3125 1.50134 15.9833 0.915291 15.3972C0.32924 14.8112 0 14.0163 0 13.1875V3.8125ZM17.9688 11.8984L23.4375 14.3297V2.67031L17.9688 5.10156V11.8984ZM3.125 2.25C2.7106 2.25 2.31317 2.41462 2.02015 2.70765C1.72712 3.00067 1.5625 3.3981 1.5625 3.8125V13.1875C1.5625 13.6019 1.72712 13.9993 2.02015 14.2924C2.31317 14.5854 2.7106 14.75 3.125 14.75H14.8438C15.2582 14.75 15.6556 14.5854 15.9486 14.2924C16.2416 13.9993 16.4062 13.6019 16.4062 13.1875V3.8125C16.4062 3.3981 16.2416 3.00067 15.9486 2.70765C15.6556 2.41462 15.2582 2.25 14.8438 2.25H3.125Z" fill="#D9D9D9"/>
<path fill-rule="evenodd" clip-rule="evenodd" d="M8.43818 3.20109L3.26086 5.91848L8.43818 8.63587V7.17358L14.5568 7.17358V4.66337L8.43818 4.66337V3.20109Z" fill="#D9D9D9"/>
<path fill-rule="evenodd" clip-rule="evenodd" d="M10.2853 8.63587L15.4626 11.3533L10.2853 14.0706V12.6084H4.16667V10.0982H10.2853V8.63587Z" fill="#D9D9D9"/>
</svg>
