<svg width="25" height="22" viewBox="0 0 20 20" fill="none" xmlns="http://www.w3.org/2000/svg">
<path d="M1.875 1.25C1.70924 1.25 1.55027 1.31585 1.43306 1.43306C1.31585 1.55027 1.25 1.70924 1.25 1.875V6.875C1.25 7.04076 1.18415 7.19973 1.06694 7.31694C0.949732 7.43415 0.79076 7.5 0.625 7.5C0.45924 7.5 0.300269 7.43415 0.183058 7.31694C0.065848 7.19973 0 7.04076 0 6.875V1.875C0 1.37772 0.197544 0.900805 0.549175 0.549175C0.900805 0.197544 1.37772 0 1.875 0L6.875 0C7.04076 0 7.19973 0.065848 7.31694 0.183058C7.43415 0.300269 7.5 0.45924 7.5 0.625C7.5 0.79076 7.43415 0.949732 7.31694 1.06694C7.19973 1.18415 7.04076 1.25 6.875 1.25H1.875ZM12.5 0.625C12.5 0.45924 12.5658 0.300269 12.6831 0.183058C12.8003 0.065848 12.9592 0 13.125 0L18.125 0C18.6223 0 19.0992 0.197544 19.4508 0.549175C19.8025 0.900805 20 1.37772 20 1.875V6.875C20 7.04076 19.9342 7.19973 19.8169 7.31694C19.6997 7.43415 19.5408 7.5 19.375 7.5C19.2092 7.5 19.0503 7.43415 18.9331 7.31694C18.8158 7.19973 18.75 7.04076 18.75 6.875V1.875C18.75 1.70924 18.6842 1.55027 18.5669 1.43306C18.4497 1.31585 18.2908 1.25 18.125 1.25H13.125C12.9592 1.25 12.8003 1.18415 12.6831 1.06694C12.5658 0.949732 12.5 0.79076 12.5 0.625ZM0.625 12.5C0.79076 12.5 0.949732 12.5658 1.06694 12.6831C1.18415 12.8003 1.25 12.9592 1.25 13.125V18.125C1.25 18.2908 1.31585 18.4497 1.43306 18.5669C1.55027 18.6842 1.70924 18.75 1.875 18.75H6.875C7.04076 18.75 7.19973 18.8158 7.31694 18.9331C7.43415 19.0503 7.5 19.2092 7.5 19.375C7.5 19.5408 7.43415 19.6997 7.31694 19.8169C7.19973 19.9342 7.04076 20 6.875 20H1.875C1.37772 20 0.900805 19.8025 0.549175 19.4508C0.197544 19.0992 0 18.6223 0 18.125L0 13.125C0 12.9592 0.065848 12.8003 0.183058 12.6831C0.300269 12.5658 0.45924 12.5 0.625 12.5ZM19.375 12.5C19.5408 12.5 19.6997 12.5658 19.8169 12.6831C19.9342 12.8003 20 12.9592 20 13.125V18.125C20 18.6223 19.8025 19.0992 19.4508 19.4508C19.0992 19.8025 18.6223 20 18.125 20H13.125C12.9592 20 12.8003 19.9342 12.6831 19.8169C12.5658 19.6997 12.5 19.5408 12.5 19.375C12.5 19.2092 12.5658 19.0503 12.6831 18.9331C12.8003 18.8158 12.9592 18.75 13.125 18.75H18.125C18.2908 18.75 18.4497 18.6842 18.5669 18.5669C18.6842 18.4497 18.75 18.2908 18.75 18.125V13.125C18.75 12.9592 18.8158 12.8003 18.9331 12.6831C19.0503 12.5658 19.2092 12.5 19.375 12.5Z" fill="#D9D9D9"/>
<circle cx="10" cy="10" r="5" fill="#D9D9D9"/>
</svg>
