<svg width="25" height="25" viewBox="0 0 27 24" fill="none" xmlns="http://www.w3.org/2000/svg">
<path d="M9.375 9.03125C9.375 9.65285 9.12807 10.249 8.68853 10.6885C8.24899 11.1281 7.65285 11.375 7.03125 11.375C6.40965 11.375 5.81351 11.1281 5.37397 10.6885C4.93443 10.249 4.6875 9.65285 4.6875 9.03125C4.6875 8.40965 4.93443 7.81351 5.37397 7.37397C5.81351 6.93443 6.40965 6.6875 7.03125 6.6875C7.65285 6.6875 8.24899 6.93443 8.68853 7.37397C9.12807 7.81351 9.375 8.40965 9.375 9.03125Z" fill="#D9D9D9"/>
<path fill-rule="evenodd" clip-rule="evenodd" d="M18.7558 2H3.125C2.2962 2 1.50134 2.32924 0.915291 2.91529C0.32924 3.50134 0 4.2962 0 5.125V20.75C0 21.5788 0.32924 22.3737 0.915291 22.9597C1.50134 23.5458 2.2962 23.875 3.125 23.875H21.875C22.7038 23.875 23.4987 23.5458 24.0847 22.9597C24.6708 22.3737 25 21.5788 25 20.75V8.24089C24.5335 8.55351 24.0053 8.78119 23.4375 8.90178V15.2812L17.5359 12.2391C17.3894 12.1657 17.2235 12.1402 17.0617 12.1663C16.8999 12.1924 16.7504 12.2687 16.6344 12.3844L10.8375 18.1813L6.68125 15.4125C6.53119 15.3126 6.35119 15.2677 6.17178 15.2853C5.99237 15.303 5.82458 15.3821 5.69687 15.5094L1.5625 19.1875V5.125C1.5625 4.7106 1.72712 4.31317 2.02015 4.02015C2.31317 3.72712 2.7106 3.5625 3.125 3.5625H18.0958C18.2161 2.99476 18.4435 2.46655 18.7558 2Z" fill="#D9D9D9"/>
<path fill-rule="evenodd" clip-rule="evenodd" d="M27 4.5C27 6.98528 24.9853 9 22.5 9C20.0147 9 18 6.98528 18 4.5C18 2.01472 20.0147 0 22.5 0C24.9853 0 27 2.01472 27 4.5ZM20.292 6.67254C20.1307 6.51125 20.1307 6.24976 20.292 6.08847L21.8939 4.48658L20.3275 2.92013C20.1662 2.75884 20.1662 2.49735 20.3275 2.33606C20.4888 2.17477 20.7502 2.17477 20.9115 2.33606L22.478 3.90251L24.0885 2.29203C24.2498 2.13075 24.5113 2.13075 24.6725 2.29203C24.8338 2.45332 24.8338 2.71482 24.6725 2.8761L23.0621 4.48658L24.708 6.1325C24.8693 6.29378 24.8693 6.55528 24.708 6.71656C24.5467 6.87785 24.2852 6.87785 24.1239 6.71656L22.478 5.07065L20.8761 6.67254C20.7148 6.83382 20.4533 6.83382 20.292 6.67254Z" fill="#D9D9D9"/>
</svg>
