<svg width="25" height="25" viewBox="0 0 25 25" fill="#d9d9d9" xmlns="http://www.w3.org/2000/svg">
<path d="M0.591837 0H24.5102L25 7.41569H23.5714C23.381 6.13099 23.1361 5.09291 22.8367 4.30145C22.5374 3.50998 22.1088 2.90204 21.551 2.47763C21.0068 2.04175 20.2993 1.74925 19.4286 1.60014C18.5578 1.45102 17.4626 1.37646 16.1429 1.37646H14.4898V23.6235H18.9796V25H6.02041V23.6235H10.5102V1.37646H8.95918C8.07483 1.37646 7.29252 1.40514 6.61224 1.46249C5.93197 1.51984 5.33333 1.62881 4.81633 1.7894C4.31293 1.94999 3.87755 2.17366 3.5102 2.46043C3.14286 2.74719 2.82993 3.11425 2.57143 3.5616C2.31293 4.00895 2.08844 4.54806 1.89796 5.17894C1.72109 5.80982 1.56463 6.5554 1.42857 7.41569H0L0.591837 0Z" />
</svg>
