<svg width="25" height="25" viewBox="0 0 25 25" fill="#D9D9D9" xmlns="http://www.w3.org/2000/svg">
<path fill-rule="evenodd" clip-rule="evenodd" d="M3 2H22C22.5523 2 23 2.44772 23 3V19.9964C20.0888 19.7428 15.5354 18.7693 11.8122 17.3759C9.92729 16.6705 8.32637 15.8834 7.26553 15.0726C6.14772 14.2184 5.94301 13.5954 6.02408 13.2017C6.08899 12.8863 6.23294 12.7192 6.48064 12.5927C6.78326 12.4381 7.26742 12.3395 7.97699 12.3359C9.24757 12.3295 10.8466 12.6175 12.582 12.9302L12.582 12.9302C12.797 12.9689 13.0142 13.008 13.233 13.047C15.125 13.384 17.187 13.7194 18.7884 13.4984C19.6067 13.3855 20.4316 13.1129 21.0543 12.5065C21.7017 11.876 22 11.014 22 10C22 8.4594 20.8684 7.32345 19.5688 6.52343C18.2278 5.69789 16.4186 5.04262 14.4536 4.53213C10.5101 3.50766 5.67421 3 2 3C2 2.44772 2.44772 2 3 2ZM2 5V22C2 22.5523 2.44772 23 3 23H22C22.5523 23 23 22.5523 23 22V21L22.917 21.9966C19.8195 21.7386 15.0349 20.7174 11.1112 19.2491C9.15495 18.517 7.34144 17.6479 6.05109 16.6617C4.81771 15.7191 3.73446 14.4046 4.06516 12.7983C4.2576 11.8637 4.80527 11.2027 5.57088 10.8116C6.28155 10.4486 7.13237 10.3402 7.96687 10.3359C9.43655 10.3285 11.2366 10.6541 12.9312 10.9606C13.1508 11.0003 13.3686 11.0397 13.5837 11.078C15.5519 11.4285 17.2857 11.6868 18.515 11.5172C19.1122 11.4348 19.4614 11.266 19.659 11.0736C19.8318 10.9053 20 10.611 20 10C20 9.5406 19.6574 8.92655 18.5203 8.22657C17.4247 7.55211 15.8349 6.95738 13.9507 6.46787C10.1956 5.49234 5.53146 5 2 5ZM0 3C0 1.34315 1.34315 0 3 0H22C23.6569 0 25 1.34315 25 3V22C25 23.6569 23.6569 25 22 25H3C1.34315 25 0 23.6569 0 22V3Z" fill="#D9D9D9"/>
</svg>
